<?xml version="1.0" encoding="us-ascii" standalone="no"?><svg xmlns="http://www.w3.org/2000/svg" xmlns:xlink="http://www.w3.org/1999/xlink" contentStyleType="text/css" height="850px" preserveAspectRatio="none" style="width:1367px;height:850px;background:#1B1B1B;" version="1.1" viewBox="0 0 1367 850" width="1367px" zoomAndPan="magnify"><defs/><g><rect fill="#1B1B1B" height="850" style="stroke:none;stroke-width:1.0;" width="1367" x="0" y="0"/><!--cluster parcial--><g id="cluster_parcial"><path d="M8.5,6 L65.5,6 A3.75,3.75 0 0 1 68,8.5 L75,28.2969 L1357.5,28.2969 A2.5,2.5 0 0 1 1360,30.7969 L1360,840.5 A2.5,2.5 0 0 1 1357.5,843 L8.5,843 A2.5,2.5 0 0 1 6,840.5 L6,8.5 A2.5,2.5 0 0 1 8.5,6 " fill="none" style="stroke:#FFFFFF;stroke-width:1.5;"/><line style="stroke:#FFFFFF;stroke-width:1.5;" x1="6" x2="75" y1="28.2969" y2="28.2969"/><text fill="#FFFFFF" font-family="sans-serif" font-size="14" font-weight="bold" lengthAdjust="spacing" textLength="56" x="10" y="20.9951">parcial</text></g><!--class Author--><g id="elem_Author"><rect codeLine="2" fill="#313139" height="145.7813" id="Author" rx="2.5" ry="2.5" style="stroke:#E7E7E7;stroke-width:0.5;" width="241" x="1102.5" y="640.5"/><ellipse cx="1194.25" cy="656.5" fill="#2E5233" rx="11" ry="11" style="stroke:#E7E7E7;stroke-width:1.0;"/><path d="M1196.5938,652.1719 C1195.6563,651.7344 1195.0625,651.5938 1194.1875,651.5938 C1191.5625,651.5938 1189.5625,653.6719 1189.5625,656.3906 L1189.5625,657.5156 C1189.5625,660.0938 1191.6719,661.9844 1194.5625,661.9844 C1195.7813,661.9844 1196.9375,661.6875 1197.6875,661.1406 C1198.2656,660.7344 1198.5938,660.2813 1198.5938,659.8906 C1198.5938,659.4375 1198.2031,659.0469 1197.7344,659.0469 C1197.5156,659.0469 1197.3125,659.125 1197.125,659.3125 C1196.6719,659.7969 1196.6719,659.7969 1196.4844,659.8906 C1196.0625,660.1563 1195.375,660.2813 1194.6094,660.2813 C1192.5625,660.2813 1191.2656,659.1875 1191.2656,657.4844 L1191.2656,656.3906 C1191.2656,654.6094 1192.5156,653.2969 1194.25,653.2969 C1194.8281,653.2969 1195.4375,653.4531 1195.9063,653.7031 C1196.3906,653.9844 1196.5625,654.2031 1196.6563,654.6094 C1196.7188,655.0156 1196.75,655.1406 1196.8906,655.2656 C1197.0313,655.4063 1197.2656,655.5156 1197.4844,655.5156 C1197.75,655.5156 1198.0156,655.375 1198.1875,655.1563 C1198.2969,655 1198.3281,654.8125 1198.3281,654.3906 L1198.3281,652.9688 C1198.3281,652.5313 1198.3125,652.4063 1198.2188,652.25 C1198.0625,651.9844 1197.7813,651.8438 1197.4844,651.8438 C1197.1875,651.8438 1196.9844,651.9375 1196.7656,652.25 L1196.5938,652.1719 Z " fill="#FFFFFF"/><text fill="#FFFFFF" font-family="sans-serif" font-size="14" lengthAdjust="spacing" textLength="49" x="1214.75" y="661.3467">Author</text><line style="stroke:#E7E7E7;stroke-width:0.5;" x1="1103.5" x2="1342.5" y1="672.5" y2="672.5"/><rect fill="none" height="6" style="stroke:#C82930;stroke-width:1.0;" width="6" x="1110.5" y="683.1484"/><text fill="#FFFFFF" font-family="sans-serif" font-size="14" lengthAdjust="spacing" textLength="42" x="1122.5" y="689.4951">id: int</text><rect fill="none" height="6" style="stroke:#C82930;stroke-width:1.0;" width="6" x="1110.5" y="699.4453"/><text fill="#FFFFFF" font-family="sans-serif" font-size="14" lengthAdjust="spacing" textLength="116" x="1122.5" y="705.792">fullName: String</text><line style="stroke:#E7E7E7;stroke-width:0.5;" x1="1103.5" x2="1342.5" y1="713.0938" y2="713.0938"/><ellipse cx="1113.5" cy="726.7422" fill="#84BE84" rx="3" ry="3" style="stroke:#038048;stroke-width:1.0;"/><text fill="#FFFFFF" font-family="sans-serif" font-size="14" lengthAdjust="spacing" textLength="215" x="1122.5" y="730.0889">Author(int id, String fullName)</text><ellipse cx="1113.5" cy="743.0391" fill="#84BE84" rx="3" ry="3" style="stroke:#038048;stroke-width:1.0;"/><text fill="#FFFFFF" font-family="sans-serif" font-size="14" lengthAdjust="spacing" textLength="153" x="1122.5" y="746.3857">getFullName(): String</text><ellipse cx="1113.5" cy="759.3359" fill="#84BE84" rx="3" ry="3" style="stroke:#038048;stroke-width:1.0;"/><text fill="#FFFFFF" font-family="sans-serif" font-size="14" lengthAdjust="spacing" textLength="77" x="1122.5" y="762.6826">getId(): int</text><ellipse cx="1113.5" cy="775.6328" fill="#84BE84" rx="3" ry="3" style="stroke:#038048;stroke-width:1.0;"/><text fill="#FFFFFF" font-family="sans-serif" font-size="14" lengthAdjust="spacing" textLength="123" x="1122.5" y="778.9795">toString(): String</text></g><!--class DocumentType--><g id="elem_DocumentType"><rect codeLine="12" fill="#313139" height="113.1875" id="DocumentType" rx="2.5" ry="2.5" style="stroke:#E7E7E7;stroke-width:0.5;" width="143" x="433.5" y="296"/><ellipse cx="448.5" cy="312" fill="#852D19" rx="11" ry="11" style="stroke:#E7E7E7;stroke-width:1.0;"/><path d="M447.2969,312.875 L448.75,312.875 L448.75,312.9844 C448.75,313.3906 448.7813,313.5469 448.8594,313.7031 C449.0156,313.9531 449.2969,314.1094 449.5938,314.1094 C449.8438,314.1094 450.1094,313.9688 450.2656,313.75 C450.3906,313.5938 450.4219,313.4375 450.4219,312.9844 L450.4219,311.0625 C450.4219,310.9063 450.4219,310.8594 450.4063,310.7031 C450.3438,310.2344 450.0313,309.9219 449.5781,309.9219 C449.3281,309.9219 449.0625,310.0625 448.8906,310.2813 C448.7813,310.4531 448.75,310.6094 448.75,311.0625 L448.75,311.1875 L447.2969,311.1875 L447.2969,308.7813 L451.2813,308.7813 L451.2813,309.6406 C451.2813,310.0469 451.3125,310.2188 451.3906,310.375 C451.5625,310.625 451.8438,310.7813 452.125,310.7813 C452.3906,310.7813 452.6563,310.6406 452.8281,310.4219 C452.9375,310.25 452.9688,310.1094 452.9688,309.6406 L452.9688,307.0938 L445.3438,307.0938 C444.9063,307.0938 444.7813,307.1094 444.625,307.2031 C444.375,307.3594 444.2188,307.6563 444.2188,307.9375 C444.2188,308.2188 444.3594,308.4688 444.5781,308.6406 C444.7344,308.75 444.9219,308.7813 445.3438,308.7813 L445.5938,308.7813 L445.5938,315.2969 L445.3438,315.2969 C444.9375,315.2969 444.7813,315.3125 444.625,315.4219 C444.375,315.5938 444.2188,315.8594 444.2188,316.1563 C444.2188,316.4219 444.3594,316.6719 444.5781,316.8281 C444.7188,316.9531 444.9531,317 445.3438,317 L453.3438,317 L453.3438,314.4219 C453.3438,313.9844 453.3125,313.8438 453.2344,313.6875 C453.0625,313.4375 452.7813,313.2813 452.5,313.2813 C452.2344,313.2813 451.9688,313.3906 451.7969,313.6406 C451.6875,313.7969 451.6563,313.9375 451.6563,314.4219 L451.6563,315.2969 L447.2969,315.2969 L447.2969,312.875 Z " fill="#FFFFFF"/><text fill="#FFFFFF" font-family="sans-serif" font-size="14" lengthAdjust="spacing" textLength="111" x="462.5" y="316.8467">DocumentType</text><line style="stroke:#E7E7E7;stroke-width:0.5;" x1="434.5" x2="575.5" y1="328" y2="328"/><text fill="#FFFFFF" font-family="sans-serif" font-size="14" lengthAdjust="spacing" textLength="42" x="439.5" y="344.9951">BOOK</text><text fill="#FFFFFF" font-family="sans-serif" font-size="14" lengthAdjust="spacing" textLength="76" x="439.5" y="361.292">MAGAZINE</text><text fill="#FFFFFF" font-family="sans-serif" font-size="14" lengthAdjust="spacing" textLength="60" x="439.5" y="377.5889">ARTICLE</text><text fill="#FFFFFF" font-family="sans-serif" font-size="14" lengthAdjust="spacing" textLength="47" x="439.5" y="393.8857">PAPER</text><line style="stroke:#E7E7E7;stroke-width:0.5;" x1="434.5" x2="575.5" y1="401.1875" y2="401.1875"/></g><!--class Document--><g id="elem_Document"><rect codeLine="19" fill="#313139" height="227.2656" id="Document" rx="2.5" ry="2.5" style="stroke:#E7E7E7;stroke-width:0.5;" width="537" x="22.5" y="600"/><ellipse cx="249.25" cy="616" fill="#2E5233" rx="11" ry="11" style="stroke:#E7E7E7;stroke-width:1.0;"/><path d="M251.5938,611.6719 C250.6563,611.2344 250.0625,611.0938 249.1875,611.0938 C246.5625,611.0938 244.5625,613.1719 244.5625,615.8906 L244.5625,617.0156 C244.5625,619.5938 246.6719,621.4844 249.5625,621.4844 C250.7813,621.4844 251.9375,621.1875 252.6875,620.6406 C253.2656,620.2344 253.5938,619.7813 253.5938,619.3906 C253.5938,618.9375 253.2031,618.5469 252.7344,618.5469 C252.5156,618.5469 252.3125,618.625 252.125,618.8125 C251.6719,619.2969 251.6719,619.2969 251.4844,619.3906 C251.0625,619.6563 250.375,619.7813 249.6094,619.7813 C247.5625,619.7813 246.2656,618.6875 246.2656,616.9844 L246.2656,615.8906 C246.2656,614.1094 247.5156,612.7969 249.25,612.7969 C249.8281,612.7969 250.4375,612.9531 250.9063,613.2031 C251.3906,613.4844 251.5625,613.7031 251.6563,614.1094 C251.7188,614.5156 251.75,614.6406 251.8906,614.7656 C252.0313,614.9063 252.2656,615.0156 252.4844,615.0156 C252.75,615.0156 253.0156,614.875 253.1875,614.6563 C253.2969,614.5 253.3281,614.3125 253.3281,613.8906 L253.3281,612.4688 C253.3281,612.0313 253.3125,611.9063 253.2188,611.75 C253.0625,611.4844 252.7813,611.3438 252.4844,611.3438 C252.1875,611.3438 251.9844,611.4375 251.7656,611.75 L251.5938,611.6719 Z " fill="#FFFFFF"/><text fill="#FFFFFF" font-family="sans-serif" font-size="14" lengthAdjust="spacing" textLength="75" x="269.75" y="620.8467">Document</text><line style="stroke:#E7E7E7;stroke-width:0.5;" x1="23.5" x2="558.5" y1="632" y2="632"/><rect fill="none" height="6" style="stroke:#C82930;stroke-width:1.0;" width="6" x="30.5" y="642.6484"/><text fill="#FFFFFF" font-family="sans-serif" font-size="14" lengthAdjust="spacing" textLength="42" x="42.5" y="648.9951">id: int</text><rect fill="none" height="6" style="stroke:#C82930;stroke-width:1.0;" width="6" x="30.5" y="658.9453"/><text fill="#FFFFFF" font-family="sans-serif" font-size="14" lengthAdjust="spacing" textLength="84" x="42.5" y="665.292">title: String</text><rect fill="none" height="6" style="stroke:#C82930;stroke-width:1.0;" width="6" x="30.5" y="675.2422"/><text fill="#FFFFFF" font-family="sans-serif" font-size="14" lengthAdjust="spacing" textLength="142" x="42.5" y="681.5889">publicationYear: int</text><rect fill="none" height="6" style="stroke:#C82930;stroke-width:1.0;" width="6" x="30.5" y="691.5391"/><text fill="#FFFFFF" font-family="sans-serif" font-size="14" lengthAdjust="spacing" textLength="154" x="42.5" y="697.8857">type: DocumentType</text><rect fill="none" height="6" style="stroke:#C82930;stroke-width:1.0;" width="6" x="30.5" y="707.8359"/><text fill="#FFFFFF" font-family="sans-serif" font-size="14" lengthAdjust="spacing" textLength="169" x="42.5" y="714.1826">keywords: List&lt;String&gt;</text><line style="stroke:#E7E7E7;stroke-width:0.5;" x1="23.5" x2="558.5" y1="721.4844" y2="721.4844"/><ellipse cx="33.5" cy="735.1328" fill="#84BE84" rx="3" ry="3" style="stroke:#038048;stroke-width:1.0;"/><text fill="#FFFFFF" font-family="sans-serif" font-size="14" lengthAdjust="spacing" textLength="511" x="42.5" y="738.4795">Document(int id, String title, int publicationYear, DocumentType type)</text><ellipse cx="33.5" cy="751.4297" fill="#84BE84" rx="3" ry="3" style="stroke:#038048;stroke-width:1.0;"/><text fill="#FFFFFF" font-family="sans-serif" font-size="14" lengthAdjust="spacing" textLength="77" x="42.5" y="754.7764">getId(): int</text><ellipse cx="33.5" cy="767.7266" fill="#84BE84" rx="3" ry="3" style="stroke:#038048;stroke-width:1.0;"/><text fill="#FFFFFF" font-family="sans-serif" font-size="14" lengthAdjust="spacing" textLength="205" x="42.5" y="771.0732">getKeywords(): List&lt;String&gt;</text><ellipse cx="33.5" cy="784.0234" fill="#84BE84" rx="3" ry="3" style="stroke:#038048;stroke-width:1.0;"/><text fill="#FFFFFF" font-family="sans-serif" font-size="14" lengthAdjust="spacing" textLength="246" x="42.5" y="787.3701">addKeyword(String keyword): void</text><ellipse cx="33.5" cy="800.3203" fill="#84BE84" rx="3" ry="3" style="stroke:#038048;stroke-width:1.0;"/><text fill="#FFFFFF" font-family="sans-serif" font-size="14" lengthAdjust="spacing" textLength="275" x="42.5" y="803.667">removeKeyword(String keyword): void</text><ellipse cx="33.5" cy="816.6172" fill="#84BE84" rx="3" ry="3" style="stroke:#038048;stroke-width:1.0;"/><text fill="#FFFFFF" font-family="sans-serif" font-size="14" lengthAdjust="spacing" textLength="123" x="42.5" y="819.9639">toString(): String</text></g><!--class DocumentAuthor--><g id="elem_DocumentAuthor"><rect codeLine="34" fill="#313139" height="145.7813" id="DocumentAuthor" rx="2.5" ry="2.5" style="stroke:#E7E7E7;stroke-width:0.5;" width="362" x="650" y="640.5"/><ellipse cx="764.75" cy="656.5" fill="#2E5233" rx="11" ry="11" style="stroke:#E7E7E7;stroke-width:1.0;"/><path d="M767.0938,652.1719 C766.1563,651.7344 765.5625,651.5938 764.6875,651.5938 C762.0625,651.5938 760.0625,653.6719 760.0625,656.3906 L760.0625,657.5156 C760.0625,660.0938 762.1719,661.9844 765.0625,661.9844 C766.2813,661.9844 767.4375,661.6875 768.1875,661.1406 C768.7656,660.7344 769.0938,660.2813 769.0938,659.8906 C769.0938,659.4375 768.7031,659.0469 768.2344,659.0469 C768.0156,659.0469 767.8125,659.125 767.625,659.3125 C767.1719,659.7969 767.1719,659.7969 766.9844,659.8906 C766.5625,660.1563 765.875,660.2813 765.1094,660.2813 C763.0625,660.2813 761.7656,659.1875 761.7656,657.4844 L761.7656,656.3906 C761.7656,654.6094 763.0156,653.2969 764.75,653.2969 C765.3281,653.2969 765.9375,653.4531 766.4063,653.7031 C766.8906,653.9844 767.0625,654.2031 767.1563,654.6094 C767.2188,655.0156 767.25,655.1406 767.3906,655.2656 C767.5313,655.4063 767.7656,655.5156 767.9844,655.5156 C768.25,655.5156 768.5156,655.375 768.6875,655.1563 C768.7969,655 768.8281,654.8125 768.8281,654.3906 L768.8281,652.9688 C768.8281,652.5313 768.8125,652.4063 768.7188,652.25 C768.5625,651.9844 768.2813,651.8438 767.9844,651.8438 C767.6875,651.8438 767.4844,651.9375 767.2656,652.25 L767.0938,652.1719 Z " fill="#FFFFFF"/><text fill="#FFFFFF" font-family="sans-serif" font-size="14" lengthAdjust="spacing" textLength="124" x="785.25" y="661.3467">DocumentAuthor</text><line style="stroke:#E7E7E7;stroke-width:0.5;" x1="651" x2="1011" y1="672.5" y2="672.5"/><rect fill="none" height="6" style="stroke:#C82930;stroke-width:1.0;" width="6" x="658" y="683.1484"/><text fill="#FFFFFF" font-family="sans-serif" font-size="14" lengthAdjust="spacing" textLength="115" x="670" y="689.4951">documentId: int</text><rect fill="none" height="6" style="stroke:#C82930;stroke-width:1.0;" width="6" x="658" y="699.4453"/><text fill="#FFFFFF" font-family="sans-serif" font-size="14" lengthAdjust="spacing" textLength="89" x="670" y="705.792">authorId: int</text><line style="stroke:#E7E7E7;stroke-width:0.5;" x1="651" x2="1011" y1="713.0938" y2="713.0938"/><ellipse cx="661" cy="726.7422" fill="#84BE84" rx="3" ry="3" style="stroke:#038048;stroke-width:1.0;"/><text fill="#FFFFFF" font-family="sans-serif" font-size="14" lengthAdjust="spacing" textLength="336" x="670" y="730.0889">DocumentAuthor(int documentId, int authorId)</text><ellipse cx="661" cy="743.0391" fill="#84BE84" rx="3" ry="3" style="stroke:#038048;stroke-width:1.0;"/><text fill="#FFFFFF" font-family="sans-serif" font-size="14" lengthAdjust="spacing" textLength="152" x="670" y="746.3857">getDocumentId(): int</text><ellipse cx="661" cy="759.3359" fill="#84BE84" rx="3" ry="3" style="stroke:#038048;stroke-width:1.0;"/><text fill="#FFFFFF" font-family="sans-serif" font-size="14" lengthAdjust="spacing" textLength="126" x="670" y="762.6826">getAuthorId(): int</text><ellipse cx="661" cy="775.6328" fill="#84BE84" rx="3" ry="3" style="stroke:#038048;stroke-width:1.0;"/><text fill="#FFFFFF" font-family="sans-serif" font-size="14" lengthAdjust="spacing" textLength="123" x="670" y="778.9795">toString(): String</text></g><!--class LibraryManager--><g id="elem_LibraryManager"><rect codeLine="44" fill="#313139" height="341.3438" id="LibraryManager" rx="2.5" ry="2.5" style="stroke:#E7E7E7;stroke-width:0.5;" width="439" x="611.5" y="182"/><ellipse cx="771.25" cy="198" fill="#2E5233" rx="11" ry="11" style="stroke:#E7E7E7;stroke-width:1.0;"/><path d="M773.5938,193.6719 C772.6563,193.2344 772.0625,193.0938 771.1875,193.0938 C768.5625,193.0938 766.5625,195.1719 766.5625,197.8906 L766.5625,199.0156 C766.5625,201.5938 768.6719,203.4844 771.5625,203.4844 C772.7813,203.4844 773.9375,203.1875 774.6875,202.6406 C775.2656,202.2344 775.5938,201.7813 775.5938,201.3906 C775.5938,200.9375 775.2031,200.5469 774.7344,200.5469 C774.5156,200.5469 774.3125,200.625 774.125,200.8125 C773.6719,201.2969 773.6719,201.2969 773.4844,201.3906 C773.0625,201.6563 772.375,201.7813 771.6094,201.7813 C769.5625,201.7813 768.2656,200.6875 768.2656,198.9844 L768.2656,197.8906 C768.2656,196.1094 769.5156,194.7969 771.25,194.7969 C771.8281,194.7969 772.4375,194.9531 772.9063,195.2031 C773.3906,195.4844 773.5625,195.7031 773.6563,196.1094 C773.7188,196.5156 773.75,196.6406 773.8906,196.7656 C774.0313,196.9063 774.2656,197.0156 774.4844,197.0156 C774.75,197.0156 775.0156,196.875 775.1875,196.6563 C775.2969,196.5 775.3281,196.3125 775.3281,195.8906 L775.3281,194.4688 C775.3281,194.0313 775.3125,193.9063 775.2188,193.75 C775.0625,193.4844 774.7813,193.3438 774.4844,193.3438 C774.1875,193.3438 773.9844,193.4375 773.7656,193.75 L773.5938,193.6719 Z " fill="#FFFFFF"/><text fill="#FFFFFF" font-family="sans-serif" font-size="14" lengthAdjust="spacing" textLength="111" x="791.75" y="202.8467">LibraryManager</text><line style="stroke:#E7E7E7;stroke-width:0.5;" x1="612.5" x2="1049.5" y1="214" y2="214"/><rect fill="none" height="6" style="stroke:#C82930;stroke-width:1.0;" width="6" x="619.5" y="224.6484"/><text fill="#FFFFFF" font-family="sans-serif" font-size="14" lengthAdjust="spacing" textLength="212" x="631.5" y="230.9951">documents: List&lt;Document&gt;</text><rect fill="none" height="6" style="stroke:#C82930;stroke-width:1.0;" width="6" x="619.5" y="240.9453"/><text fill="#FFFFFF" font-family="sans-serif" font-size="14" lengthAdjust="spacing" textLength="160" x="631.5" y="247.292">authors: List&lt;Author&gt;</text><rect fill="none" height="6" style="stroke:#C82930;stroke-width:1.0;" width="6" x="619.5" y="257.2422"/><text fill="#FFFFFF" font-family="sans-serif" font-size="14" lengthAdjust="spacing" textLength="310" x="631.5" y="263.5889">authorDocuments: List&lt;DocumentAuthor&gt;</text><rect fill="none" height="6" style="stroke:#C82930;stroke-width:1.0;" width="6" x="619.5" y="273.5391"/><text fill="#FFFFFF" font-family="sans-serif" font-size="14" lengthAdjust="spacing" textLength="123" x="631.5" y="279.8857">scanner: Scanner</text><line style="stroke:#E7E7E7;stroke-width:0.5;" x1="612.5" x2="1049.5" y1="287.1875" y2="287.1875"/><ellipse cx="622.5" cy="300.8359" fill="#84BE84" rx="3" ry="3" style="stroke:#038048;stroke-width:1.0;"/><text fill="#FFFFFF" font-family="sans-serif" font-size="14" lengthAdjust="spacing" textLength="121" x="631.5" y="304.1826">LibraryManager()</text><ellipse cx="622.5" cy="317.1328" fill="#84BE84" rx="3" ry="3" style="stroke:#038048;stroke-width:1.0;"/><text fill="#FFFFFF" font-family="sans-serif" font-size="14" lengthAdjust="spacing" textLength="137" x="631.5" y="320.4795">displayMenu(): void</text><rect fill="#F24D5C" height="6" style="stroke:#C82930;stroke-width:1.0;" width="6" x="619.5" y="330.4297"/><text fill="#FFFFFF" font-family="sans-serif" font-size="14" lengthAdjust="spacing" textLength="150" x="631.5" y="336.7764">addDocument(): void</text><rect fill="#F24D5C" height="6" style="stroke:#C82930;stroke-width:1.0;" width="6" x="619.5" y="346.7266"/><text fill="#FFFFFF" font-family="sans-serif" font-size="14" lengthAdjust="spacing" textLength="217" x="631.5" y="353.0732">addAuthorToDocument(): void</text><rect fill="#F24D5C" height="6" style="stroke:#C82930;stroke-width:1.0;" width="6" x="619.5" y="363.0234"/><text fill="#FFFFFF" font-family="sans-serif" font-size="14" lengthAdjust="spacing" textLength="124" x="631.5" y="369.3701">addAuthor(): void</text><rect fill="#F24D5C" height="6" style="stroke:#C82930;stroke-width:1.0;" width="6" x="619.5" y="379.3203"/><text fill="#FFFFFF" font-family="sans-serif" font-size="14" lengthAdjust="spacing" textLength="237" x="631.5" y="385.667">addKeywordsToDocument(): void</text><rect fill="#F24D5C" height="6" style="stroke:#C82930;stroke-width:1.0;" width="6" x="619.5" y="395.6172"/><text fill="#FFFFFF" font-family="sans-serif" font-size="14" lengthAdjust="spacing" textLength="274" x="631.5" y="401.9639">associateAuthorWithDocument(): void</text><rect fill="#F24D5C" height="6" style="stroke:#C82930;stroke-width:1.0;" width="6" x="619.5" y="411.9141"/><text fill="#FFFFFF" font-family="sans-serif" font-size="14" lengthAdjust="spacing" textLength="202" x="631.5" y="418.2607">searchDocumentById(): void</text><rect fill="#F24D5C" height="6" style="stroke:#C82930;stroke-width:1.0;" width="6" x="619.5" y="428.2109"/><text fill="#FFFFFF" font-family="sans-serif" font-size="14" lengthAdjust="spacing" textLength="176" x="631.5" y="434.5576">searchAuthorById(): void</text><rect fill="#F24D5C" height="6" style="stroke:#C82930;stroke-width:1.0;" width="6" x="619.5" y="444.5078"/><text fill="#FFFFFF" font-family="sans-serif" font-size="14" lengthAdjust="spacing" textLength="413" x="631.5" y="450.8545">getAuthorsByDocumentId(int documentId): List&lt;Author&gt;</text><rect fill="#F24D5C" height="6" style="stroke:#C82930;stroke-width:1.0;" width="6" x="619.5" y="460.8047"/><text fill="#FFFFFF" font-family="sans-serif" font-size="14" lengthAdjust="spacing" textLength="413" x="631.5" y="467.1514">getDocumentsByAuthorId(int authorId): List&lt;Document&gt;</text><rect fill="#F24D5C" height="6" style="stroke:#C82930;stroke-width:1.0;" width="6" x="619.5" y="477.1016"/><text fill="#FFFFFF" font-family="sans-serif" font-size="14" lengthAdjust="spacing" textLength="262" x="631.5" y="483.4482">getDocumentById(int id): Document</text><rect fill="#F24D5C" height="6" style="stroke:#C82930;stroke-width:1.0;" width="6" x="619.5" y="493.3984"/><text fill="#FFFFFF" font-family="sans-serif" font-size="14" lengthAdjust="spacing" textLength="210" x="631.5" y="499.7451">getAuthorById(int id): Author</text><rect fill="#F24D5C" height="6" style="stroke:#C82930;stroke-width:1.0;" width="6" x="619.5" y="509.6953"/><text fill="#FFFFFF" font-family="sans-serif" font-size="14" lengthAdjust="spacing" textLength="171" x="631.5" y="516.042">listAllDocuments(): void</text></g><!--class LibrarySimulation--><g id="elem_LibrarySimulation"><rect codeLine="66" fill="#313139" height="64.2969" id="LibrarySimulation" rx="2.5" ry="2.5" style="stroke:#E7E7E7;stroke-width:0.5;" width="198" x="732" y="41"/><ellipse cx="765" cy="57" fill="#2E5233" rx="11" ry="11" style="stroke:#E7E7E7;stroke-width:1.0;"/><path d="M767.3438,52.6719 C766.4063,52.2344 765.8125,52.0938 764.9375,52.0938 C762.3125,52.0938 760.3125,54.1719 760.3125,56.8906 L760.3125,58.0156 C760.3125,60.5938 762.4219,62.4844 765.3125,62.4844 C766.5313,62.4844 767.6875,62.1875 768.4375,61.6406 C769.0156,61.2344 769.3438,60.7813 769.3438,60.3906 C769.3438,59.9375 768.9531,59.5469 768.4844,59.5469 C768.2656,59.5469 768.0625,59.625 767.875,59.8125 C767.4219,60.2969 767.4219,60.2969 767.2344,60.3906 C766.8125,60.6563 766.125,60.7813 765.3594,60.7813 C763.3125,60.7813 762.0156,59.6875 762.0156,57.9844 L762.0156,56.8906 C762.0156,55.1094 763.2656,53.7969 765,53.7969 C765.5781,53.7969 766.1875,53.9531 766.6563,54.2031 C767.1406,54.4844 767.3125,54.7031 767.4063,55.1094 C767.4688,55.5156 767.5,55.6406 767.6406,55.7656 C767.7813,55.9063 768.0156,56.0156 768.2344,56.0156 C768.5,56.0156 768.7656,55.875 768.9375,55.6563 C769.0469,55.5 769.0781,55.3125 769.0781,54.8906 L769.0781,53.4688 C769.0781,53.0313 769.0625,52.9063 768.9688,52.75 C768.8125,52.4844 768.5313,52.3438 768.2344,52.3438 C767.9375,52.3438 767.7344,52.4375 767.5156,52.75 L767.3438,52.6719 Z " fill="#FFFFFF"/><text fill="#FFFFFF" font-family="sans-serif" font-size="14" lengthAdjust="spacing" textLength="126" x="783" y="61.8467">LibrarySimulation</text><line style="stroke:#E7E7E7;stroke-width:0.5;" x1="733" x2="929" y1="73" y2="73"/><line style="stroke:#E7E7E7;stroke-width:0.5;" x1="733" x2="929" y1="81" y2="81"/><ellipse cx="743" cy="94.6484" fill="#84BE84" rx="3" ry="3" style="stroke:#038048;stroke-width:1.0;"/><text fill="#FFFFFF" font-family="sans-serif" font-size="14" lengthAdjust="spacing" textLength="172" x="752" y="97.9951">main(String[] args): void</text></g><!--link LibraryManager to Document--><g id="link_LibraryManager_Document"><path codeLine="71" d="M611.185,511.41 C605.411,515.332 599.675,519.201 594,523 C555.974,548.453 514.711,574.968 475.231,599.821 " fill="none" id="LibraryManager-Document" style="stroke:#E7E7E7;stroke-width:1.0;"/><text fill="#FFFFFF" font-family="sans-serif" font-size="13" lengthAdjust="spacing" textLength="60" x="546" y="566.0669">manages</text><text fill="#FFFFFF" font-family="sans-serif" font-size="13" lengthAdjust="spacing" textLength="23" x="463.2966" y="589.1206">0..*</text></g><!--link LibraryManager to Author--><g id="link_LibraryManager_Author"><path codeLine="72" d="M1016.09,523.013 C1061.29,564.406 1107.27,606.509 1144.36,640.482 " fill="none" id="LibraryManager-Author" style="stroke:#E7E7E7;stroke-width:1.0;"/><text fill="#FFFFFF" font-family="sans-serif" font-size="13" lengthAdjust="spacing" textLength="60" x="1063" y="566.0669">manages</text><text fill="#FFFFFF" font-family="sans-serif" font-size="13" lengthAdjust="spacing" textLength="23" x="1112.0643" y="629.2636">0..*</text></g><!--link LibraryManager to DocumentAuthor--><g id="link_LibraryManager_DocumentAuthor"><path codeLine="73" d="M831,523.013 C831,564.406 831,606.509 831,640.482 " fill="none" id="LibraryManager-DocumentAuthor" style="stroke:#E7E7E7;stroke-width:1.0;"/><text fill="#FFFFFF" font-family="sans-serif" font-size="13" lengthAdjust="spacing" textLength="60" x="832" y="566.0669">manages</text><text fill="#FFFFFF" font-family="sans-serif" font-size="13" lengthAdjust="spacing" textLength="23" x="806.8141" y="629.2636">0..*</text></g><!--link DocumentAuthor to Author--><g id="link_DocumentAuthor_Author"><path codeLine="74" d="M1012.08,713.5 C1042.68,713.5 1073.76,713.5 1102.32,713.5 " fill="none" id="DocumentAuthor-Author" style="stroke:#E7E7E7;stroke-width:1.0;"/><text fill="#FFFFFF" font-family="sans-serif" font-size="13" lengthAdjust="spacing" textLength="54" x="1030.25" y="706.5669">contains</text><text fill="#FFFFFF" font-family="sans-serif" font-size="13" lengthAdjust="spacing" textLength="23" x="1020.2045" y="725.8907">0..*</text><text fill="#FFFFFF" font-family="sans-serif" font-size="13" lengthAdjust="spacing" textLength="8" x="1086.3327" y="710.0977">1</text></g><!--link Document to DocumentAuthor--><g id="link_Document_DocumentAuthor"><path codeLine="75" d="M559.813,713.5 C590.357,713.5 620.92,713.5 649.94,713.5 " fill="none" id="Document-DocumentAuthor" style="stroke:#E7E7E7;stroke-width:1.0;"/><text fill="#FFFFFF" font-family="sans-serif" font-size="13" lengthAdjust="spacing" textLength="54" x="577.75" y="706.5669">contains</text><text fill="#FFFFFF" font-family="sans-serif" font-size="13" lengthAdjust="spacing" textLength="8" x="567.9121" y="710.3423">1</text><text fill="#FFFFFF" font-family="sans-serif" font-size="13" lengthAdjust="spacing" textLength="23" x="618.8164" y="725.8907">0..*</text></g><!--link DocumentType to LibraryManager--><g id="link_DocumentType_LibraryManager"><path codeLine="76" d="M576.631,352.5 C588.223,352.5 599.816,352.5 611.408,352.5 " fill="none" id="DocumentType-LibraryManager" style="stroke:#E7E7E7;stroke-width:1.0;"/></g><!--link LibrarySimulation to LibraryManager--><g id="link_LibrarySimulation_LibraryManager"><path codeLine="77" d="M831,105.025 C831,124.896 831,152.422 831,181.904 " fill="none" id="LibrarySimulation-LibraryManager" style="stroke:#E7E7E7;stroke-width:1.0;"/><text fill="#FFFFFF" font-family="sans-serif" font-size="13" lengthAdjust="spacing" textLength="48" x="832" y="148.0669">creates</text></g><!--SRC=[bLHTRziW57tFhq1-ifUusbwZgPBJT5FKfAsQIDKsxO7QD4N5O07kP4txxyC6O_17clefkVVSmxcNmorW-WgF20G5v2c6901_Pq1zAO52WAIKBuoRKFt506TBWAbq8iyb8RSmHqkmbnpJuypcveOWL0MgS640jY9oa4Salvbm65agBx_9wenx-1n8ff6zcdzQ1A9b3jOiBND4vQ4gaDFAwkxknlxP9T-JdvlRQnj87WwRgstt_pwvltvmgVM0MkvtHYIn96ZGL0oAyedW54hCw0y4-Q1CALvw-ftaAwh-C9w99TXY8Rzgxajt-6rXV_oDcaLzLb_0mXzMVNxq_Xsey8qHKoSzEHqAPfb1XKQ7wK2Ll36SEL2ESlQ6paMVje1_JoE6pangCxWrs83R-CXW7NTtB7gmRMrlV6iB6nrZOge-wdFTv1O_SSYh7QJgHOytsRgbrN4vQBT5Q2d3_7g2QOWNAQGKALFlzGztWhxKq9rIXaL1OBLJRpViNtPSkyZQUZIhTHpOEQZnNElbqnn2CBKl9T9CZrY-d40BzRPI2rXL-eP7GPfl0c8j8bQLOoNVWD7a3Je6L0JMR9vVJnZ4AM_qwRKITHjgJAcFr347HzHX2I5MbjVqcBltE2z9ix0SWyz13Z4rc-BNRm3vKVX4YghtFE8O19ylBZu5tH9VAfewAQQnPe6SWUojdAx2188l0OZ9D3nbLAgcnCpAQohu1ogQ9LvN-29dmr76VKnDnv7oj_WF]--></g></svg>