<?xml version="1.0" encoding="us-ascii" standalone="no"?><svg xmlns="http://www.w3.org/2000/svg" xmlns:xlink="http://www.w3.org/1999/xlink" contentStyleType="text/css" height="808px" preserveAspectRatio="none" style="width:1400px;height:808px;background:#FFFFFF;" version="1.1" viewBox="0 0 1400 808" width="1400px" zoomAndPan="magnify"><defs/><g><!--cluster parcial--><g id="cluster_parcial"><path d="M8.5,6 L65.5,6 A3.75,3.75 0 0 1 68,8.5 L75,28.2969 L1390.5,28.2969 A2.5,2.5 0 0 1 1393,30.7969 L1393,798.5 A2.5,2.5 0 0 1 1390.5,801 L8.5,801 A2.5,2.5 0 0 1 6,798.5 L6,8.5 A2.5,2.5 0 0 1 8.5,6 " fill="none" style="stroke:#000000;stroke-width:1.5;"/><line style="stroke:#000000;stroke-width:1.5;" x1="6" x2="75" y1="28.2969" y2="28.2969"/><text fill="#000000" font-family="sans-serif" font-size="14" font-weight="bold" lengthAdjust="spacing" textLength="56" x="10" y="20.9951">parcial</text></g><!--class Author--><g id="elem_Author"><rect codeLine="2" fill="#F1F1F1" height="178.375" id="Author" rx="2.5" ry="2.5" style="stroke:#181818;stroke-width:0.5;" width="274" x="1103" y="517"/><ellipse cx="1211.25" cy="533" fill="#ADD1B2" rx="11" ry="11" style="stroke:#181818;stroke-width:1.0;"/><path d="M1213.5938,528.6719 C1212.6563,528.2344 1212.0625,528.0938 1211.1875,528.0938 C1208.5625,528.0938 1206.5625,530.1719 1206.5625,532.8906 L1206.5625,534.0156 C1206.5625,536.5938 1208.6719,538.4844 1211.5625,538.4844 C1212.7813,538.4844 1213.9375,538.1875 1214.6875,537.6406 C1215.2656,537.2344 1215.5938,536.7813 1215.5938,536.3906 C1215.5938,535.9375 1215.2031,535.5469 1214.7344,535.5469 C1214.5156,535.5469 1214.3125,535.625 1214.125,535.8125 C1213.6719,536.2969 1213.6719,536.2969 1213.4844,536.3906 C1213.0625,536.6563 1212.375,536.7813 1211.6094,536.7813 C1209.5625,536.7813 1208.2656,535.6875 1208.2656,533.9844 L1208.2656,532.8906 C1208.2656,531.1094 1209.5156,529.7969 1211.25,529.7969 C1211.8281,529.7969 1212.4375,529.9531 1212.9063,530.2031 C1213.3906,530.4844 1213.5625,530.7031 1213.6563,531.1094 C1213.7188,531.5156 1213.75,531.6406 1213.8906,531.7656 C1214.0313,531.9063 1214.2656,532.0156 1214.4844,532.0156 C1214.75,532.0156 1215.0156,531.875 1215.1875,531.6563 C1215.2969,531.5 1215.3281,531.3125 1215.3281,530.8906 L1215.3281,529.4688 C1215.3281,529.0313 1215.3125,528.9063 1215.2188,528.75 C1215.0625,528.4844 1214.7813,528.3438 1214.4844,528.3438 C1214.1875,528.3438 1213.9844,528.4375 1213.7656,528.75 L1213.5938,528.6719 Z " fill="#000000"/><text fill="#000000" font-family="sans-serif" font-size="14" lengthAdjust="spacing" textLength="49" x="1231.75" y="537.8467">Author</text><line style="stroke:#181818;stroke-width:0.5;" x1="1104" x2="1376" y1="549" y2="549"/><rect fill="none" height="6" style="stroke:#C82930;stroke-width:1.0;" width="6" x="1111" y="559.6484"/><text fill="#000000" font-family="sans-serif" font-size="14" lengthAdjust="spacing" textLength="42" x="1123" y="565.9951">id: int</text><rect fill="none" height="6" style="stroke:#C82930;stroke-width:1.0;" width="6" x="1111" y="575.9453"/><text fill="#000000" font-family="sans-serif" font-size="14" lengthAdjust="spacing" textLength="116" x="1123" y="582.292">fullName: String</text><line style="stroke:#181818;stroke-width:0.5;" x1="1104" x2="1376" y1="589.5938" y2="589.5938"/><ellipse cx="1114" cy="603.2422" fill="#84BE84" rx="3" ry="3" style="stroke:#038048;stroke-width:1.0;"/><text fill="#000000" font-family="sans-serif" font-size="14" lengthAdjust="spacing" textLength="215" x="1123" y="606.5889">Author(int id, String fullName)</text><ellipse cx="1114" cy="619.5391" fill="#84BE84" rx="3" ry="3" style="stroke:#038048;stroke-width:1.0;"/><text fill="#000000" font-family="sans-serif" font-size="14" lengthAdjust="spacing" textLength="153" x="1123" y="622.8857">getFullName(): String</text><ellipse cx="1114" cy="635.8359" fill="#84BE84" rx="3" ry="3" style="stroke:#038048;stroke-width:1.0;"/><text fill="#000000" font-family="sans-serif" font-size="14" lengthAdjust="spacing" textLength="248" x="1123" y="639.1826">setFullName(String fullName): void</text><ellipse cx="1114" cy="652.1328" fill="#84BE84" rx="3" ry="3" style="stroke:#038048;stroke-width:1.0;"/><text fill="#000000" font-family="sans-serif" font-size="14" lengthAdjust="spacing" textLength="77" x="1123" y="655.4795">getId(): int</text><ellipse cx="1114" cy="668.4297" fill="#84BE84" rx="3" ry="3" style="stroke:#038048;stroke-width:1.0;"/><text fill="#000000" font-family="sans-serif" font-size="14" lengthAdjust="spacing" textLength="122" x="1123" y="671.7764">setId(int id): void</text><ellipse cx="1114" cy="684.7266" fill="#84BE84" rx="3" ry="3" style="stroke:#038048;stroke-width:1.0;"/><text fill="#000000" font-family="sans-serif" font-size="14" lengthAdjust="spacing" textLength="123" x="1123" y="688.0732">toString(): String</text></g><!--class DocumentType--><g id="elem_DocumentType"><rect codeLine="14" fill="#F1F1F1" height="113.1875" id="DocumentType" rx="2.5" ry="2.5" style="stroke:#181818;stroke-width:0.5;" width="143" x="433.5" y="139"/><ellipse cx="448.5" cy="155" fill="#EB937F" rx="11" ry="11" style="stroke:#181818;stroke-width:1.0;"/><path d="M447.2969,155.875 L448.75,155.875 L448.75,155.9844 C448.75,156.3906 448.7813,156.5469 448.8594,156.7031 C449.0156,156.9531 449.2969,157.1094 449.5938,157.1094 C449.8438,157.1094 450.1094,156.9688 450.2656,156.75 C450.3906,156.5938 450.4219,156.4375 450.4219,155.9844 L450.4219,154.0625 C450.4219,153.9063 450.4219,153.8594 450.4063,153.7031 C450.3438,153.2344 450.0313,152.9219 449.5781,152.9219 C449.3281,152.9219 449.0625,153.0625 448.8906,153.2813 C448.7813,153.4531 448.75,153.6094 448.75,154.0625 L448.75,154.1875 L447.2969,154.1875 L447.2969,151.7813 L451.2813,151.7813 L451.2813,152.6406 C451.2813,153.0469 451.3125,153.2188 451.3906,153.375 C451.5625,153.625 451.8438,153.7813 452.125,153.7813 C452.3906,153.7813 452.6563,153.6406 452.8281,153.4219 C452.9375,153.25 452.9688,153.1094 452.9688,152.6406 L452.9688,150.0938 L445.3438,150.0938 C444.9063,150.0938 444.7813,150.1094 444.625,150.2031 C444.375,150.3594 444.2188,150.6563 444.2188,150.9375 C444.2188,151.2188 444.3594,151.4688 444.5781,151.6406 C444.7344,151.75 444.9219,151.7813 445.3438,151.7813 L445.5938,151.7813 L445.5938,158.2969 L445.3438,158.2969 C444.9375,158.2969 444.7813,158.3125 444.625,158.4219 C444.375,158.5938 444.2188,158.8594 444.2188,159.1563 C444.2188,159.4219 444.3594,159.6719 444.5781,159.8281 C444.7188,159.9531 444.9531,160 445.3438,160 L453.3438,160 L453.3438,157.4219 C453.3438,156.9844 453.3125,156.8438 453.2344,156.6875 C453.0625,156.4375 452.7813,156.2813 452.5,156.2813 C452.2344,156.2813 451.9688,156.3906 451.7969,156.6406 C451.6875,156.7969 451.6563,156.9375 451.6563,157.4219 L451.6563,158.2969 L447.2969,158.2969 L447.2969,155.875 Z " fill="#000000"/><text fill="#000000" font-family="sans-serif" font-size="14" lengthAdjust="spacing" textLength="111" x="462.5" y="159.8467">DocumentType</text><line style="stroke:#181818;stroke-width:0.5;" x1="434.5" x2="575.5" y1="171" y2="171"/><text fill="#000000" font-family="sans-serif" font-size="14" lengthAdjust="spacing" textLength="42" x="439.5" y="187.9951">BOOK</text><text fill="#000000" font-family="sans-serif" font-size="14" lengthAdjust="spacing" textLength="76" x="439.5" y="204.292">MAGAZINE</text><text fill="#000000" font-family="sans-serif" font-size="14" lengthAdjust="spacing" textLength="60" x="439.5" y="220.5889">ARTICLE</text><text fill="#000000" font-family="sans-serif" font-size="14" lengthAdjust="spacing" textLength="47" x="439.5" y="236.8857">PAPER</text><line style="stroke:#181818;stroke-width:0.5;" x1="434.5" x2="575.5" y1="244.1875" y2="244.1875"/></g><!--class Document--><g id="elem_Document"><rect codeLine="21" fill="#F1F1F1" height="357.6406" id="Document" rx="2.5" ry="2.5" style="stroke:#181818;stroke-width:0.5;" width="537" x="22.5" y="427"/><ellipse cx="249.25" cy="443" fill="#ADD1B2" rx="11" ry="11" style="stroke:#181818;stroke-width:1.0;"/><path d="M251.5938,438.6719 C250.6563,438.2344 250.0625,438.0938 249.1875,438.0938 C246.5625,438.0938 244.5625,440.1719 244.5625,442.8906 L244.5625,444.0156 C244.5625,446.5938 246.6719,448.4844 249.5625,448.4844 C250.7813,448.4844 251.9375,448.1875 252.6875,447.6406 C253.2656,447.2344 253.5938,446.7813 253.5938,446.3906 C253.5938,445.9375 253.2031,445.5469 252.7344,445.5469 C252.5156,445.5469 252.3125,445.625 252.125,445.8125 C251.6719,446.2969 251.6719,446.2969 251.4844,446.3906 C251.0625,446.6563 250.375,446.7813 249.6094,446.7813 C247.5625,446.7813 246.2656,445.6875 246.2656,443.9844 L246.2656,442.8906 C246.2656,441.1094 247.5156,439.7969 249.25,439.7969 C249.8281,439.7969 250.4375,439.9531 250.9063,440.2031 C251.3906,440.4844 251.5625,440.7031 251.6563,441.1094 C251.7188,441.5156 251.75,441.6406 251.8906,441.7656 C252.0313,441.9063 252.2656,442.0156 252.4844,442.0156 C252.75,442.0156 253.0156,441.875 253.1875,441.6563 C253.2969,441.5 253.3281,441.3125 253.3281,440.8906 L253.3281,439.4688 C253.3281,439.0313 253.3125,438.9063 253.2188,438.75 C253.0625,438.4844 252.7813,438.3438 252.4844,438.3438 C252.1875,438.3438 251.9844,438.4375 251.7656,438.75 L251.5938,438.6719 Z " fill="#000000"/><text fill="#000000" font-family="sans-serif" font-size="14" lengthAdjust="spacing" textLength="75" x="269.75" y="447.8467">Document</text><line style="stroke:#181818;stroke-width:0.5;" x1="23.5" x2="558.5" y1="459" y2="459"/><rect fill="none" height="6" style="stroke:#C82930;stroke-width:1.0;" width="6" x="30.5" y="469.6484"/><text fill="#000000" font-family="sans-serif" font-size="14" lengthAdjust="spacing" textLength="42" x="42.5" y="475.9951">id: int</text><rect fill="none" height="6" style="stroke:#C82930;stroke-width:1.0;" width="6" x="30.5" y="485.9453"/><text fill="#000000" font-family="sans-serif" font-size="14" lengthAdjust="spacing" textLength="84" x="42.5" y="492.292">title: String</text><rect fill="none" height="6" style="stroke:#C82930;stroke-width:1.0;" width="6" x="30.5" y="502.2422"/><text fill="#000000" font-family="sans-serif" font-size="14" lengthAdjust="spacing" textLength="142" x="42.5" y="508.5889">publicationYear: int</text><rect fill="none" height="6" style="stroke:#C82930;stroke-width:1.0;" width="6" x="30.5" y="518.5391"/><text fill="#000000" font-family="sans-serif" font-size="14" lengthAdjust="spacing" textLength="154" x="42.5" y="524.8857">type: DocumentType</text><rect fill="none" height="6" style="stroke:#C82930;stroke-width:1.0;" width="6" x="30.5" y="534.8359"/><text fill="#000000" font-family="sans-serif" font-size="14" lengthAdjust="spacing" textLength="169" x="42.5" y="541.1826">keywords: List&lt;String&gt;</text><line style="stroke:#181818;stroke-width:0.5;" x1="23.5" x2="558.5" y1="548.4844" y2="548.4844"/><ellipse cx="33.5" cy="562.1328" fill="#84BE84" rx="3" ry="3" style="stroke:#038048;stroke-width:1.0;"/><text fill="#000000" font-family="sans-serif" font-size="14" lengthAdjust="spacing" textLength="511" x="42.5" y="565.4795">Document(int id, String title, int publicationYear, DocumentType type)</text><ellipse cx="33.5" cy="578.4297" fill="#84BE84" rx="3" ry="3" style="stroke:#038048;stroke-width:1.0;"/><text fill="#000000" font-family="sans-serif" font-size="14" lengthAdjust="spacing" textLength="77" x="42.5" y="581.7764">getId(): int</text><ellipse cx="33.5" cy="594.7266" fill="#84BE84" rx="3" ry="3" style="stroke:#038048;stroke-width:1.0;"/><text fill="#000000" font-family="sans-serif" font-size="14" lengthAdjust="spacing" textLength="122" x="42.5" y="598.0732">setId(int id): void</text><ellipse cx="33.5" cy="611.0234" fill="#84BE84" rx="3" ry="3" style="stroke:#038048;stroke-width:1.0;"/><text fill="#000000" font-family="sans-serif" font-size="14" lengthAdjust="spacing" textLength="121" x="42.5" y="614.3701">getTitle(): String</text><ellipse cx="33.5" cy="627.3203" fill="#84BE84" rx="3" ry="3" style="stroke:#038048;stroke-width:1.0;"/><text fill="#000000" font-family="sans-serif" font-size="14" lengthAdjust="spacing" textLength="184" x="42.5" y="630.667">setTitle(String title): void</text><ellipse cx="33.5" cy="643.6172" fill="#84BE84" rx="3" ry="3" style="stroke:#038048;stroke-width:1.0;"/><text fill="#000000" font-family="sans-serif" font-size="14" lengthAdjust="spacing" textLength="176" x="42.5" y="646.9639">getPublicationYear(): int</text><ellipse cx="33.5" cy="659.9141" fill="#84BE84" rx="3" ry="3" style="stroke:#038048;stroke-width:1.0;"/><text fill="#000000" font-family="sans-serif" font-size="14" lengthAdjust="spacing" textLength="321" x="42.5" y="663.2607">setPublicationYear(int publicationYear): void</text><ellipse cx="33.5" cy="676.2109" fill="#84BE84" rx="3" ry="3" style="stroke:#038048;stroke-width:1.0;"/><text fill="#000000" font-family="sans-serif" font-size="14" lengthAdjust="spacing" textLength="191" x="42.5" y="679.5576">getType(): DocumentType</text><ellipse cx="33.5" cy="692.5078" fill="#84BE84" rx="3" ry="3" style="stroke:#038048;stroke-width:1.0;"/><text fill="#000000" font-family="sans-serif" font-size="14" lengthAdjust="spacing" textLength="257" x="42.5" y="695.8545">setType(DocumentType type): void</text><ellipse cx="33.5" cy="708.8047" fill="#84BE84" rx="3" ry="3" style="stroke:#038048;stroke-width:1.0;"/><text fill="#000000" font-family="sans-serif" font-size="14" lengthAdjust="spacing" textLength="205" x="42.5" y="712.1514">getKeywords(): List&lt;String&gt;</text><ellipse cx="33.5" cy="725.1016" fill="#84BE84" rx="3" ry="3" style="stroke:#038048;stroke-width:1.0;"/><text fill="#000000" font-family="sans-serif" font-size="14" lengthAdjust="spacing" textLength="305" x="42.5" y="728.4482">setKeywords(List&lt;String&gt; keywords): void</text><ellipse cx="33.5" cy="741.3984" fill="#84BE84" rx="3" ry="3" style="stroke:#038048;stroke-width:1.0;"/><text fill="#000000" font-family="sans-serif" font-size="14" lengthAdjust="spacing" textLength="246" x="42.5" y="744.7451">addKeyword(String keyword): void</text><ellipse cx="33.5" cy="757.6953" fill="#84BE84" rx="3" ry="3" style="stroke:#038048;stroke-width:1.0;"/><text fill="#000000" font-family="sans-serif" font-size="14" lengthAdjust="spacing" textLength="275" x="42.5" y="761.042">removeKeyword(String keyword): void</text><ellipse cx="33.5" cy="773.9922" fill="#84BE84" rx="3" ry="3" style="stroke:#038048;stroke-width:1.0;"/><text fill="#000000" font-family="sans-serif" font-size="14" lengthAdjust="spacing" textLength="123" x="42.5" y="777.3389">toString(): String</text></g><!--class DocumentAuthor--><g id="elem_DocumentAuthor"><rect codeLine="44" fill="#F1F1F1" height="178.375" id="DocumentAuthor" rx="2.5" ry="2.5" style="stroke:#181818;stroke-width:0.5;" width="362" x="650" y="517"/><ellipse cx="764.75" cy="533" fill="#ADD1B2" rx="11" ry="11" style="stroke:#181818;stroke-width:1.0;"/><path d="M767.0938,528.6719 C766.1563,528.2344 765.5625,528.0938 764.6875,528.0938 C762.0625,528.0938 760.0625,530.1719 760.0625,532.8906 L760.0625,534.0156 C760.0625,536.5938 762.1719,538.4844 765.0625,538.4844 C766.2813,538.4844 767.4375,538.1875 768.1875,537.6406 C768.7656,537.2344 769.0938,536.7813 769.0938,536.3906 C769.0938,535.9375 768.7031,535.5469 768.2344,535.5469 C768.0156,535.5469 767.8125,535.625 767.625,535.8125 C767.1719,536.2969 767.1719,536.2969 766.9844,536.3906 C766.5625,536.6563 765.875,536.7813 765.1094,536.7813 C763.0625,536.7813 761.7656,535.6875 761.7656,533.9844 L761.7656,532.8906 C761.7656,531.1094 763.0156,529.7969 764.75,529.7969 C765.3281,529.7969 765.9375,529.9531 766.4063,530.2031 C766.8906,530.4844 767.0625,530.7031 767.1563,531.1094 C767.2188,531.5156 767.25,531.6406 767.3906,531.7656 C767.5313,531.9063 767.7656,532.0156 767.9844,532.0156 C768.25,532.0156 768.5156,531.875 768.6875,531.6563 C768.7969,531.5 768.8281,531.3125 768.8281,530.8906 L768.8281,529.4688 C768.8281,529.0313 768.8125,528.9063 768.7188,528.75 C768.5625,528.4844 768.2813,528.3438 767.9844,528.3438 C767.6875,528.3438 767.4844,528.4375 767.2656,528.75 L767.0938,528.6719 Z " fill="#000000"/><text fill="#000000" font-family="sans-serif" font-size="14" lengthAdjust="spacing" textLength="124" x="785.25" y="537.8467">DocumentAuthor</text><line style="stroke:#181818;stroke-width:0.5;" x1="651" x2="1011" y1="549" y2="549"/><rect fill="none" height="6" style="stroke:#C82930;stroke-width:1.0;" width="6" x="658" y="559.6484"/><text fill="#000000" font-family="sans-serif" font-size="14" lengthAdjust="spacing" textLength="115" x="670" y="565.9951">documentId: int</text><rect fill="none" height="6" style="stroke:#C82930;stroke-width:1.0;" width="6" x="658" y="575.9453"/><text fill="#000000" font-family="sans-serif" font-size="14" lengthAdjust="spacing" textLength="89" x="670" y="582.292">authorId: int</text><line style="stroke:#181818;stroke-width:0.5;" x1="651" x2="1011" y1="589.5938" y2="589.5938"/><ellipse cx="661" cy="603.2422" fill="#84BE84" rx="3" ry="3" style="stroke:#038048;stroke-width:1.0;"/><text fill="#000000" font-family="sans-serif" font-size="14" lengthAdjust="spacing" textLength="336" x="670" y="606.5889">DocumentAuthor(int documentId, int authorId)</text><ellipse cx="661" cy="619.5391" fill="#84BE84" rx="3" ry="3" style="stroke:#038048;stroke-width:1.0;"/><text fill="#000000" font-family="sans-serif" font-size="14" lengthAdjust="spacing" textLength="152" x="670" y="622.8857">getDocumentId(): int</text><ellipse cx="661" cy="635.8359" fill="#84BE84" rx="3" ry="3" style="stroke:#038048;stroke-width:1.0;"/><text fill="#000000" font-family="sans-serif" font-size="14" lengthAdjust="spacing" textLength="270" x="670" y="639.1826">setDocumentId(int documentId): void</text><ellipse cx="661" cy="652.1328" fill="#84BE84" rx="3" ry="3" style="stroke:#038048;stroke-width:1.0;"/><text fill="#000000" font-family="sans-serif" font-size="14" lengthAdjust="spacing" textLength="126" x="670" y="655.4795">getAuthorId(): int</text><ellipse cx="661" cy="668.4297" fill="#84BE84" rx="3" ry="3" style="stroke:#038048;stroke-width:1.0;"/><text fill="#000000" font-family="sans-serif" font-size="14" lengthAdjust="spacing" textLength="218" x="670" y="671.7764">setAuthorId(int authorId): void</text><ellipse cx="661" cy="684.7266" fill="#84BE84" rx="3" ry="3" style="stroke:#038048;stroke-width:1.0;"/><text fill="#000000" font-family="sans-serif" font-size="14" lengthAdjust="spacing" textLength="123" x="670" y="688.0732">toString(): String</text></g><!--class LibraryManager--><g id="elem_LibraryManager"><rect codeLine="56" fill="#F1F1F1" height="308.75" id="LibraryManager" rx="2.5" ry="2.5" style="stroke:#181818;stroke-width:0.5;" width="439" x="611.5" y="41"/><ellipse cx="771.25" cy="57" fill="#ADD1B2" rx="11" ry="11" style="stroke:#181818;stroke-width:1.0;"/><path d="M773.5938,52.6719 C772.6563,52.2344 772.0625,52.0938 771.1875,52.0938 C768.5625,52.0938 766.5625,54.1719 766.5625,56.8906 L766.5625,58.0156 C766.5625,60.5938 768.6719,62.4844 771.5625,62.4844 C772.7813,62.4844 773.9375,62.1875 774.6875,61.6406 C775.2656,61.2344 775.5938,60.7813 775.5938,60.3906 C775.5938,59.9375 775.2031,59.5469 774.7344,59.5469 C774.5156,59.5469 774.3125,59.625 774.125,59.8125 C773.6719,60.2969 773.6719,60.2969 773.4844,60.3906 C773.0625,60.6563 772.375,60.7813 771.6094,60.7813 C769.5625,60.7813 768.2656,59.6875 768.2656,57.9844 L768.2656,56.8906 C768.2656,55.1094 769.5156,53.7969 771.25,53.7969 C771.8281,53.7969 772.4375,53.9531 772.9063,54.2031 C773.3906,54.4844 773.5625,54.7031 773.6563,55.1094 C773.7188,55.5156 773.75,55.6406 773.8906,55.7656 C774.0313,55.9063 774.2656,56.0156 774.4844,56.0156 C774.75,56.0156 775.0156,55.875 775.1875,55.6563 C775.2969,55.5 775.3281,55.3125 775.3281,54.8906 L775.3281,53.4688 C775.3281,53.0313 775.3125,52.9063 775.2188,52.75 C775.0625,52.4844 774.7813,52.3438 774.4844,52.3438 C774.1875,52.3438 773.9844,52.4375 773.7656,52.75 L773.5938,52.6719 Z " fill="#000000"/><text fill="#000000" font-family="sans-serif" font-size="14" lengthAdjust="spacing" textLength="111" x="791.75" y="61.8467">LibraryManager</text><line style="stroke:#181818;stroke-width:0.5;" x1="612.5" x2="1049.5" y1="73" y2="73"/><rect fill="none" height="6" style="stroke:#C82930;stroke-width:1.0;" width="6" x="619.5" y="83.6484"/><text fill="#000000" font-family="sans-serif" font-size="14" lengthAdjust="spacing" textLength="212" x="631.5" y="89.9951">documents: List&lt;Document&gt;</text><rect fill="none" height="6" style="stroke:#C82930;stroke-width:1.0;" width="6" x="619.5" y="99.9453"/><text fill="#000000" font-family="sans-serif" font-size="14" lengthAdjust="spacing" textLength="160" x="631.5" y="106.292">authors: List&lt;Author&gt;</text><rect fill="none" height="6" style="stroke:#C82930;stroke-width:1.0;" width="6" x="619.5" y="116.2422"/><text fill="#000000" font-family="sans-serif" font-size="14" lengthAdjust="spacing" textLength="310" x="631.5" y="122.5889">authorDocuments: List&lt;DocumentAuthor&gt;</text><rect fill="none" height="6" style="stroke:#C82930;stroke-width:1.0;" width="6" x="619.5" y="132.5391"/><text fill="#000000" font-family="sans-serif" font-size="14" lengthAdjust="spacing" textLength="123" x="631.5" y="138.8857">scanner: Scanner</text><line style="stroke:#181818;stroke-width:0.5;" x1="612.5" x2="1049.5" y1="146.1875" y2="146.1875"/><ellipse cx="622.5" cy="159.8359" fill="#84BE84" rx="3" ry="3" style="stroke:#038048;stroke-width:1.0;"/><text fill="#000000" font-family="sans-serif" font-size="14" lengthAdjust="spacing" textLength="121" x="631.5" y="163.1826">LibraryManager()</text><ellipse cx="622.5" cy="176.1328" fill="#84BE84" rx="3" ry="3" style="stroke:#038048;stroke-width:1.0;"/><text fill="#000000" font-family="sans-serif" font-size="14" lengthAdjust="spacing" textLength="137" x="631.5" y="179.4795">displayMenu(): void</text><ellipse cx="622.5" cy="192.4297" fill="#84BE84" rx="3" ry="3" style="stroke:#038048;stroke-width:1.0;"/><text fill="#000000" font-family="sans-serif" font-size="14" lengthAdjust="spacing" textLength="150" x="631.5" y="195.7764">addDocument(): void</text><ellipse cx="622.5" cy="208.7266" fill="#84BE84" rx="3" ry="3" style="stroke:#038048;stroke-width:1.0;"/><text fill="#000000" font-family="sans-serif" font-size="14" lengthAdjust="spacing" textLength="124" x="631.5" y="212.0732">addAuthor(): void</text><ellipse cx="622.5" cy="225.0234" fill="#84BE84" rx="3" ry="3" style="stroke:#038048;stroke-width:1.0;"/><text fill="#000000" font-family="sans-serif" font-size="14" lengthAdjust="spacing" textLength="274" x="631.5" y="228.3701">associateAuthorWithDocument(): void</text><ellipse cx="622.5" cy="241.3203" fill="#84BE84" rx="3" ry="3" style="stroke:#038048;stroke-width:1.0;"/><text fill="#000000" font-family="sans-serif" font-size="14" lengthAdjust="spacing" textLength="202" x="631.5" y="244.667">searchDocumentById(): void</text><ellipse cx="622.5" cy="257.6172" fill="#84BE84" rx="3" ry="3" style="stroke:#038048;stroke-width:1.0;"/><text fill="#000000" font-family="sans-serif" font-size="14" lengthAdjust="spacing" textLength="176" x="631.5" y="260.9639">searchAuthorById(): void</text><ellipse cx="622.5" cy="273.9141" fill="#84BE84" rx="3" ry="3" style="stroke:#038048;stroke-width:1.0;"/><text fill="#000000" font-family="sans-serif" font-size="14" lengthAdjust="spacing" textLength="413" x="631.5" y="277.2607">getAuthorsByDocumentId(int documentId): List&lt;Author&gt;</text><ellipse cx="622.5" cy="290.2109" fill="#84BE84" rx="3" ry="3" style="stroke:#038048;stroke-width:1.0;"/><text fill="#000000" font-family="sans-serif" font-size="14" lengthAdjust="spacing" textLength="413" x="631.5" y="293.5576">getDocumentsByAuthorId(int authorId): List&lt;Document&gt;</text><ellipse cx="622.5" cy="306.5078" fill="#84BE84" rx="3" ry="3" style="stroke:#038048;stroke-width:1.0;"/><text fill="#000000" font-family="sans-serif" font-size="14" lengthAdjust="spacing" textLength="262" x="631.5" y="309.8545">getDocumentById(int id): Document</text><ellipse cx="622.5" cy="322.8047" fill="#84BE84" rx="3" ry="3" style="stroke:#038048;stroke-width:1.0;"/><text fill="#000000" font-family="sans-serif" font-size="14" lengthAdjust="spacing" textLength="210" x="631.5" y="326.1514">getAuthorById(int id): Author</text><ellipse cx="622.5" cy="339.1016" fill="#84BE84" rx="3" ry="3" style="stroke:#038048;stroke-width:1.0;"/><text fill="#000000" font-family="sans-serif" font-size="14" lengthAdjust="spacing" textLength="171" x="631.5" y="342.4482">listAllDocuments(): void</text></g><!--link LibraryManager to Document--><g id="link_LibraryManager_Document"><path codeLine="77" d="M628.003,350.063 C594.95,375.067 560.467,401.153 526.711,426.689 " fill="none" id="LibraryManager-Document" style="stroke:#181818;stroke-width:1.0;"/><text fill="#000000" font-family="sans-serif" font-size="13" lengthAdjust="spacing" textLength="60" x="578" y="393.0669">manages</text><text fill="#000000" font-family="sans-serif" font-size="13" lengthAdjust="spacing" textLength="23" x="513.1699" y="415.8852">0..*</text></g><!--link LibraryManager to Author--><g id="link_LibraryManager_Author"><path codeLine="78" d="M984.751,350.063 C1041.16,406.407 1103.08,468.244 1151.8,516.905 " fill="none" id="LibraryManager-Author" style="stroke:#181818;stroke-width:1.0;"/><text fill="#000000" font-family="sans-serif" font-size="13" lengthAdjust="spacing" textLength="60" x="1024" y="393.0669">manages</text><text fill="#000000" font-family="sans-serif" font-size="13" lengthAdjust="spacing" textLength="23" x="1120.5436" y="505.9626">0..*</text></g><!--link LibraryManager to DocumentAuthor--><g id="link_LibraryManager_DocumentAuthor"><path codeLine="79" d="M831,350.063 C831,406.407 831,468.244 831,516.905 " fill="none" id="LibraryManager-DocumentAuthor" style="stroke:#181818;stroke-width:1.0;"/><text fill="#000000" font-family="sans-serif" font-size="13" lengthAdjust="spacing" textLength="60" x="832" y="393.0669">manages</text><text fill="#000000" font-family="sans-serif" font-size="13" lengthAdjust="spacing" textLength="23" x="807.0477" y="505.9626">0..*</text></g><!--link DocumentAuthor to Author--><g id="link_DocumentAuthor_Author"><path codeLine="80" d="M1012.18,606 C1042.63,606 1073.77,606 1102.87,606 " fill="none" id="DocumentAuthor-Author" style="stroke:#181818;stroke-width:1.0;"/><text fill="#000000" font-family="sans-serif" font-size="13" lengthAdjust="spacing" textLength="54" x="1030.5" y="599.0669">contains</text><text fill="#000000" font-family="sans-serif" font-size="13" lengthAdjust="spacing" textLength="23" x="1019.7066" y="618.3551">0..*</text><text fill="#000000" font-family="sans-serif" font-size="13" lengthAdjust="spacing" textLength="8" x="1087.152" y="602.6501">1</text></g><!--link Document to DocumentAuthor--><g id="link_Document_DocumentAuthor"><path codeLine="81" d="M559.813,606 C590.357,606 620.92,606 649.94,606 " fill="none" id="Document-DocumentAuthor" style="stroke:#181818;stroke-width:1.0;"/><text fill="#000000" font-family="sans-serif" font-size="13" lengthAdjust="spacing" textLength="54" x="577.75" y="599.0669">contains</text><text fill="#000000" font-family="sans-serif" font-size="13" lengthAdjust="spacing" textLength="8" x="567.9121" y="602.8515">1</text><text fill="#000000" font-family="sans-serif" font-size="13" lengthAdjust="spacing" textLength="23" x="618.8164" y="618.3782">0..*</text></g><!--link DocumentType to LibraryManager--><g id="link_DocumentType_LibraryManager"><path codeLine="82" d="M576.631,195.5 C588.223,195.5 599.816,195.5 611.408,195.5 " fill="none" id="DocumentType-LibraryManager" style="stroke:#181818;stroke-width:1.0;"/></g><!--SRC=[fLLTRvim57tFhx1uIhPGRQ-egaIMRegQj54RgMhVNF1IgyOWR3gXglzz1dzWOvDM6q_9lUSS7zzxkLGmUu571A8ArXc6909lCo2UZ436GDhmvx9MeUw90SuJW2ct8hyRGgvXWH9mnsjCZpEJ-we4ve8WY4i5C8o5XJmY_bE5vmiZDUIPbH_B9E2rnBahjiax6Tjfho72qenFugNK7Ht_Bk-3Q5E0TPar1QByq5R8gihgvkRA_DcblzB7pVMb2QItXysFxV1_d-ulRsrfMMkj_K6rEUO4UVM9GTKy4Pn1ZalwW63jqOJZnF5l9LzG-wUiSvQ0BMRyN6fVs7tKn74dUpVBxgonWQLRhExynVzsI90EtO5J0oAJjhMWnjvr6dGnnWHk6FOdxja91YijJNO8lpOXiIlLbqxGwOmZQ50snFJK5uPvhYYwL0hhGsjKbA_ei-ZJBv0xvO7DaglKnfjvs8DrF32MrfePLEHOQkve-DO65co_bNP5WtrArHb1APDqtFnJyRRugOPrkuDKhEnmyVGxh2zmuPLH8wGlFx-UKFBnB8EK8h5gxkGFkpEkrRbT_HopYi1s9pRgF3YTPja4iwhNWHnZfVY4SIGHzvW_dr1YuWtE363Loku5GL9l0cBQprRjgQa9rjmPHI4mDIiJBNNelJ-pENKqvDH5ofY58-Amb11Zoxdq-qnCv6WEunX4tyxElaJ3Dom1HPzaqrYr0Jw17EsCWQ42qVS8n6GQdfMKGqpPpDZh6RLcV4pertH7S3t-1G00]--></g></svg>